<?xml version="1.0" encoding="utf-8"?>
<!-- Generator: Adobe Illustrator 23.0.4, SVG Export Plug-In . SVG Version: 6.00 Build 0)  -->
<svg version="1.1" id="Capa_1" xmlns="http://www.w3.org/2000/svg" xmlns:xlink="http://www.w3.org/1999/xlink" x="0px" y="0px"
	 width="40px" height="40px" viewBox="0 0 40 40" style="enable-background:new 0 0 40 40;" xml:space="preserve">
<title>Group 3</title>
<g>
	<path d="M35.6,3.6c-0.4,0-0.8,0.3-0.8,0.8s0.3,0.8,0.8,0.8s0.8-0.3,0.8-0.8S36.1,3.6,35.6,3.6z"/>
	<path d="M35.6,34.9c-0.4,0-0.8,0.3-0.8,0.8s0.3,0.8,0.8,0.8s0.8-0.3,0.8-0.8S36.1,34.9,35.6,34.9z"/>
	<path d="M4.4,5.1c0.4,0,0.8-0.3,0.8-0.8S4.8,3.6,4.4,3.6S3.6,3.9,3.6,4.4S3.9,5.1,4.4,5.1z"/>
	<path d="M4.4,34.9c-0.4,0-0.8,0.3-0.8,0.8s0.3,0.8,0.8,0.8s0.8-0.3,0.8-0.8S4.8,34.9,4.4,34.9z"/>
	<path d="M4.8,20.8L4.8,20.8c0.4,0,0.8-0.3,0.8-0.8s-0.3-0.7-0.7-0.8c0,0,0,0,0,0c-0.4,0-0.8,0.3-0.8,0.8S4.4,20.8,4.8,20.8z"/>
	<path d="M35.6,0.6H4.4c-2.1,0-3.8,1.7-3.8,3.8v31.3c0,2.1,1.7,3.8,3.8,3.8h31.3c2.1,0,3.8-1.7,3.8-3.8V4.4
		C39.4,2.3,37.7,0.6,35.6,0.6z M37.9,35.6c0,1.3-1,2.3-2.3,2.3H4.4c-1.3,0-2.3-1-2.3-2.3V4.4c0-1.3,1-2.3,2.3-2.3h31.3
		c1.3,0,2.3,1,2.3,2.3V35.6z"/>
	<path d="M20,4.1c-7.7,0-14.1,5.5-15.6,12.8c-0.1,0.4,0.2,0.8,0.6,0.9c0.4,0.1,0.8-0.2,0.9-0.6C7.2,10.4,13.2,5.6,20,5.6
		c7.9,0,14.4,6.5,14.4,14.4S27.9,34.4,20,34.4c-6.9,0-12.7-4.8-14.1-11.6c-0.1-0.4-0.5-0.7-0.9-0.6c-0.4,0.1-0.7,0.5-0.6,0.9
		c1.6,7.3,7.8,12.8,15.6,12.8c8.8,0,15.9-7.1,15.9-15.9C35.9,11.2,28.8,4.1,20,4.1z"/>
	<path d="M28.3,13.9c0-3.8-3.1-6.8-6.8-6.8H20c-0.4,0-0.8,0.3-0.8,0.8v6.3c-1.3-1.6-3.2-2.5-5.3-2.5c-3.8,0-6.8,3.1-6.8,6.8V20
		c0,0.4,0.3,0.8,0.8,0.8h6.3c-1.6,1.3-2.5,3.2-2.5,5.3c0,3.8,3.1,6.8,6.8,6.8H20c0.4,0,0.8-0.3,0.8-0.8v-6.3
		c1.3,1.6,3.2,2.5,5.3,2.5c3.8,0,6.8-3.1,6.8-6.8V20c0-0.4-0.3-0.8-0.8-0.8h-6.3C27.4,18,28.3,16,28.3,13.9z M21.5,8.6
		c2.9,0,5.3,2.4,5.3,5.3c0,2.2-1.3,4.1-3.2,4.9c-0.4-1.3-1.5-2.3-2.8-2.5V8.6H21.5z M20.1,22.3c-1.3,0.1-2.3-0.9-2.4-2.1
		c-0.1-1.3,1-2.4,2.3-2.4c1.2,0,2.3,1,2.3,2.3C22.3,21.2,21.3,22.2,20.1,22.3z M8.6,18.5c0-2.9,2.4-5.3,5.3-5.3
		c2.2,0,4.1,1.3,4.9,3.2c-1.3,0.4-2.3,1.5-2.5,2.8H8.6V18.5z M18.5,31.4c-2.9,0-5.3-2.4-5.3-5.3c0-2.2,1.3-4.1,3.2-4.9
		c0.4,1.3,1.5,2.3,2.8,2.5v7.7H18.5z M31.4,21.5c0,2.9-2.4,5.3-5.3,5.3c-2.2,0-4.1-1.3-4.9-3.2c1.3-0.4,2.3-1.5,2.5-2.8h7.7V21.5z"
		/>
</g>
</svg>
