<svg width="30" height="36" xmlns="http://www.w3.org/2000/svg"><title>Group 6</title><g fill="none"><path d="M-16-13h62v62h-62z"/><g fill="#000"><path d="M23.893 15.898V6.761a.685.685 0 0 0-.685-.685H6.213a.685.685 0 0 0-.685.685v9.137c0 .379.307.686.685.686h2.65a.685.685 0 1 0 0-1.37H6.898V7.446h15.625v7.766H11.81a.685.685 0 1 0 0 1.37h11.398a.685.685 0 0 0 .685-.685zm-11.91 2.379l-.034.013a6.446 6.446 0 0 0-.815.456l-.051.034a6.557 6.557 0 0 0-.446.328 6.705 6.705 0 0 0-.247.208l-.07.06a6.537 6.537 0 0 0-.44.44l-.072.082a6.489 6.489 0 0 0-.128.147l-.086.107-.1.128a6.605 6.605 0 0 0-.43.646l-.04.068a6.527 6.527 0 0 0-.108.198l-.011.023a6.501 6.501 0 0 0-.727 2.998 6.49 6.49 0 0 0 1.913 4.62 6.55 6.55 0 0 0 7.324 1.327.68.68 0 0 0 .057-.023c.191-.09.377-.189.558-.296l.007-.004a7.38 7.38 0 0 0 .25-.156l.053-.036a6.35 6.35 0 0 0 .445-.326 6.587 6.587 0 0 0 .248-.209l.069-.06a6.637 6.637 0 0 0 .445-.445l.062-.07a6.69 6.69 0 0 0 .145-.17l.063-.078a6.438 6.438 0 0 0 .325-.443l.037-.056c.053-.08.105-.163.154-.246l.006-.01c.107-.18.206-.366.295-.557.005-.01.008-.021.012-.031a6.544 6.544 0 0 0-1.316-7.35 6.544 6.544 0 0 0-7.347-1.317zm7.12 8.646a4.068 4.068 0 0 1-.087.14c-.025.038-.052.074-.078.11a5.025 5.025 0 0 1-.301.39c-.023.027-.045.054-.069.08a5.293 5.293 0 0 1-.427.428l-.08.069a5.284 5.284 0 0 1-.388.3l-.113.079c-.041.027-.084.052-.126.079l-.125.076-7.06-7.06.008-.014c.053-.09.108-.177.166-.264l.015-.021a5.176 5.176 0 0 1 .356-.463l.059-.068a5.25 5.25 0 0 1 .428-.429l.079-.067a5.342 5.342 0 0 1 .392-.304l.108-.075c.05-.034.103-.066.155-.097l.097-.06 7.06 7.06-.068.111zm-8.043.94a5.129 5.129 0 0 1-1.512-3.65c0-.415.05-.823.145-1.217l6.233 6.233a5.164 5.164 0 0 1-4.866-1.365zm8.666-2.434l-6.23-6.231a5.2 5.2 0 0 1 1.215-.145c1.322 0 2.644.504 3.65 1.51a5.164 5.164 0 0 1 1.365 4.866z"/><path d="M8.772 35.954h16.265a4.344 4.344 0 0 0 4.339-4.339V4.385a4.344 4.344 0 0 0-4.34-4.34H4.386a4.344 4.344 0 0 0-4.34 4.34v1.371a.685.685 0 1 0 1.371 0V4.385a2.972 2.972 0 0 1 2.969-2.969h20.652a2.972 2.972 0 0 1 2.968 2.969v27.23a2.972 2.972 0 0 1-2.968 2.969H4.385a2.972 2.972 0 0 1-2.969-2.969V8.566a.685.685 0 1 0-1.37 0v23.05a4.344 4.344 0 0 0 4.339 4.338H8.77z"/><path d="M25.95 27.97a.685.685 0 0 0 .685-.684V4.384a1.6 1.6 0 0 0-1.6-1.599H4.386a1.6 1.6 0 0 0-1.598 1.599v27.232a1.6 1.6 0 0 0 1.599 1.6h20.65a1.6 1.6 0 0 0 1.599-1.6V30.21a.685.685 0 1 0-1.371 0v1.407a.228.228 0 0 1-.228.229H4.386a.228.228 0 0 1-.229-.229V4.384c0-.126.103-.228.229-.228h20.65c.126 0 .228.102.228.228v22.902c0 .378.307.685.685.685z"/></g></g></svg>