<svg width="34" height="36" xmlns="http://www.w3.org/2000/svg"><title>Group 9</title><g fill="none"><path d="M-14-10h62v62h-62z"/><g fill="#000"><path d="M26.405 0c-3.758 0-6.867 2.918-7.175 6.6H.005V36h26.4c3.96 0 7.2-3.24 7.2-7.2V7.2c0-3.96-3.24-7.2-7.2-7.2zm-25.2 12.335L8.575 7.8h4.211L1.205 14.556v-2.221zm18 7.296l-2.19-.547 2.19-1.25v1.797zm0-3.18l-3.872 2.212-3.154-.788 7.026-4.217v2.793zm0-4.193l-8.672 5.205-3.163-.79 11.835-7.207v2.792zm-.967 8.368l-3.49 2.074-13.543-3.95v-2.382l17.033 4.258zm-12.737 7.57l-4.296-1.611v-2.97l7.868 2.458-3.572 2.123zm-4.296-5.839V20l12.133 3.539-2.967 1.763.023-.073-9.19-2.872zm0 5.51l2.974 1.115-2.974 1.768v-2.883zm0 4.279l18-10.698v2.812l-18 10.442v-2.556zm18-6.499v2.806L8.244 34.8H3.427l15.778-9.153zm0-17.586L5.734 16.263l-3.552-.887L15.168 7.8h4.037v.26zM6.285 7.8l-5.08 3.126V7.8h5.08zm4.354 27l8.636-5a7.228 7.228 0 0 0 3.163 5h-11.8zm15.766 0c-3.3 0-6-2.7-6-6s2.7-6 6-6 6 2.7 6 6-2.7 6-6 6zm0-13.2a7.208 7.208 0 0 0-6 3.233V7.2c0-3.3 2.7-6 6-6s6 2.7 6 6v17.633a7.208 7.208 0 0 0-6-3.233z"/><path d="M26.405 24.6c-2.34 0-4.2 1.86-4.2 4.2s1.86 4.2 4.2 4.2 4.2-1.86 4.2-4.2-1.86-4.2-4.2-4.2zm0 7.2c-1.68 0-3-1.32-3-3s1.32-3 3-3 3 1.32 3 3-1.32 3-3 3z"/></g></g></svg>