<svg width="25" height="41" xmlns="http://www.w3.org/2000/svg"><title>Group 8</title><g fill="none"><path d="M-18-11h62v62h-62z"/><g fill="#000"><path d="M21.843 15.573h-1.698a.595.595 0 0 0-.59.6c0 .333.264.602.59.602h1.698c.326 0 .59-.27.59-.601 0-.332-.264-.6-.59-.6z"/><path d="M24.981 16.174c0-3.946-2.998-7.191-6.795-7.498V.6a.595.595 0 0 0-.59-.601H7.404a.595.595 0 0 0-.59.6v8.076C3.017 8.983.019 12.228.019 16.174v17.304c0 2.035 1.477 3.725 3.397 4.016V40.4c0 .332.264.601.59.601h16.988c.326 0 .59-.269.59-.6v-2.906c1.918-.29 3.395-1.98 3.397-4.013V16.175zM7.993 1.2h9.014v7.45h-2.643V5.79c0-.331-.264-.6-.59-.6h-2.548a.595.595 0 0 0-.59.6v2.861H7.993v-7.45zm5.192 5.191v2.26h-1.37v-2.26h1.37zm7.22 33.407H4.594v-2.26h15.81v2.26zm3.397-6.922h-16.2a.595.595 0 0 0-.589.6c0 .332.264.601.59.601h16.136c-.272 1.29-1.4 2.26-2.745 2.26H4.006c-1.548 0-2.808-1.283-2.808-2.86V16.774h16.2c.325 0 .589-.27.589-.6a.595.595 0 0 0-.59-.601H1.227c.298-3.205 2.954-5.72 6.177-5.72h10.192l.003-.001c3.42.002 6.203 2.837 6.203 6.32v16.704z"/><path d="M4.855 32.877H3.157a.595.595 0 0 0-.59.6c0 .332.264.601.59.601h1.698c.326 0 .59-.269.59-.6 0-.332-.264-.6-.59-.6z"/></g></g></svg>