<svg width="27" height="36" xmlns="http://www.w3.org/2000/svg"><title>Group 10</title><g fill="none"><path d="M-18-13h62v62h-62z"/><path d="M24.943 32.683h-.437V3.317h.308c.849.026 1.569-.617 1.595-1.466.025-.848-.618-1.568-1.466-1.594H1.646A1.51 1.51 0 0 0 .05 1.723C.026 2.57.67 3.29 1.517 3.317h.437v29.366h-.308C.797 32.657.077 33.3.05 34.149c-.025.848.618 1.568 1.466 1.594h23.297c.849.026 1.569-.617 1.595-1.466.025-.848-.618-1.568-1.466-1.594zM1.646 2.366a.576.576 0 0 1-.617-.54.576.576 0 0 1 .54-.617h23.245a.576.576 0 0 1 .617.54.576.576 0 0 1-.54.617H1.646zm1.285 21.42V12.214H23.53v11.572H2.93zm20.598.951v7.946H2.93v-7.946h20.6zM2.93 11.263V3.317h20.6v7.946H2.93zm21.96 23.528H1.646a.576.576 0 0 1-.617-.54.576.576 0 0 1 .54-.617h23.245a.576.576 0 0 1 .617.54c.026.309-.231.592-.54.617z" fill="#000"/></g></svg>