<svg width="40" height="24" xmlns="http://www.w3.org/2000/svg"><title>radiator</title><g fill="none"><path d="M-11-19h62v62h-62z"/><path d="M13.15 3.354a.787.787 0 0 0-.552-.229.785.785 0 0 0-.782.781.784.784 0 0 0 .782.781.787.787 0 0 0 .552-.228.787.787 0 0 0 .229-.553.787.787 0 0 0-.23-.552zm14.512 15.625a.787.787 0 0 0-.553-.229.787.787 0 0 0-.552.229.787.787 0 0 0-.229.552.79.79 0 0 0 .229.553.787.787 0 0 0 .552.229.787.787 0 0 0 .553-.23.787.787 0 0 0 .229-.552.787.787 0 0 0-.23-.552z" fill="#000"/><path d="M39.219 9.41H37.89V6.984a3.866 3.866 0 0 0-3.125-3.789v-.852A2.346 2.346 0 0 0 32.422 0H7.579a2.346 2.346 0 0 0-2.344 2.344v.852a3.866 3.866 0 0 0-3.125 3.79v2.423H.781A.781.781 0 0 0 0 10.19v3.057c0 .432.35.781.781.781h1.33v2.424a3.866 3.866 0 0 0 3.124 3.79v.852a2.346 2.346 0 0 0 2.344 2.343h24.843a2.346 2.346 0 0 0 2.344-2.343v-.853a3.866 3.866 0 0 0 3.125-3.789v-2.424h1.328c.431 0 .781-.35.781-.78V10.19a.781.781 0 0 0-.781-.78zm-37.11 3.056h-.546v-1.494h.546v1.494zm3.126 6.163a2.302 2.302 0 0 1-1.562-2.177V6.985c0-1.01.655-1.87 1.562-2.177V18.63zm3.125 3.246h-.78a.782.782 0 0 1-.782-.781V2.344c0-.431.35-.781.781-.781h.781v20.312zm21.718 0H9.923v-1.563h13.868a.781.781 0 0 0 0-1.562H9.923v-1.563h20.155v4.688zm0-6.25H9.923v-1.563h20.155v1.563zm0-3.125H9.923v-1.563h20.155V12.5zm0-3.125H9.923V7.812h20.155v1.563zm0-6.25H15.59a.781.781 0 0 0 0 1.563h14.49V6.25H9.922V1.562h20.155v1.563zm3.125.781v17.188c0 .43-.35.781-.781.781h-.781V1.562h.78c.432 0 .782.351.782.782v1.562zm3.125 6.284v6.262c0 1.01-.655 1.87-1.562 2.177V4.81a2.302 2.302 0 0 1 1.562 2.176v3.205zm2.11 2.276h-.547v-1.494h.547v1.494z" fill="#000"/></g></svg>