<svg width="39" height="32" xmlns="http://www.w3.org/2000/svg"><title>Group 4</title><g fill="none" fill-rule="evenodd"><path fill-rule="nonzero" d="M-12-15h62v62h-62z"/><path d="M13.765 0c-2.11.002-3.821 1.704-3.824 3.803 0 .42.343.76.765.76H26c.422 0 .765-.34.765-.76-.003-2.1-1.713-3.8-3.824-3.803h-9.176zm11.34 3.042H11.6a2.298 2.298 0 0 1 2.164-1.52h9.176c.972 0 1.838.61 2.164 1.52zM23.706 15.21h-.765v-1.52h-1.53v1.52h-1.529v-1.52h-1.53v1.52h-1.528v-1.52h-1.53v1.52h-1.53v-1.52h-1.529v1.52h-.764a.763.763 0 0 0-.765.761v6.085c0 .42.342.76.765.76h.764v1.521h1.53v-1.52h1.53v1.52h1.529v-1.52h1.529v1.52h1.53v-1.52h1.529v1.52h1.53v-1.52h.764a.764.764 0 0 0 .765-.761V15.97c0-.42-.343-.76-.765-.76zm-.765 6.085H12.235v-4.563h10.706v4.563z" fill="#000" fill-rule="nonzero"/><path d="M10.258 7.605l-4.364 4.34a.767.767 0 0 1-.541.224H1.529v13.69h3.824c.203 0 .397.08.54.222l4.365 4.34h19.566V11.724l-4.14-4.118H10.257zm21.095 7.606h1.529v7.605h-1.529zm3.059-3.042h3.059v13.69h-3.059z"/><path d="M38.235 10.648h-4.588a.763.763 0 0 0-.765.76v2.282h-1.53v-2.282a.758.758 0 0 0-.223-.538L26.54 6.307a.767.767 0 0 0-.54-.223H9.941a.767.767 0 0 0-.54.223l-4.365 4.34H.765a.763.763 0 0 0-.765.761V26.62c0 .42.342.76.765.76h4.271l4.365 4.341a.767.767 0 0 0 .54.223h20.647c.423 0 .765-.34.765-.76v-6.846h1.53v2.282c0 .42.342.76.764.76h4.588c.423 0 .765-.34.765-.76V11.41a.763.763 0 0 0-.765-.761zm-8.411 19.774H10.258l-4.364-4.34a.767.767 0 0 0-.541-.223H1.529v-13.69h3.824c.203 0 .397-.08.54-.223l4.365-4.34h15.425l4.14 4.117v18.699zm3.058-7.606h-1.53v-7.605h1.53v7.605zm4.589 3.043h-3.06v-13.69h3.06v13.69z" fill="#000" fill-rule="nonzero"/></g></svg>