<svg width="44" height="18" xmlns="http://www.w3.org/2000/svg"><title>Group 7</title><g fill="none"><path d="M-9-23h62v62H-9z"/><path d="M35.933 17.25c0 .414.328.75.734.75h4.4a.742.742 0 0 0 .733-.75v-1.5H44V2.25h-2.2V.75a.742.742 0 0 0-.733-.75h-4.4a.742.742 0 0 0-.734.75v1.5H8.067V.75A.742.742 0 0 0 7.333 0h-4.4A.742.742 0 0 0 2.2.75v1.5H0v13.5h2.2v1.5c0 .414.328.75.733.75h4.4a.742.742 0 0 0 .734-.75v-1.5h27.866v1.5zm6.6-13.5v10.5H41.8V3.75h.733zM37.4 1.5h2.933v15H37.4v-15zM1.467 14.25V3.75H2.2v10.5h-.733zm2.2 2.25v-15H6.6v15H3.667zm4.4-2.25V3.75h27.866v10.5H8.067z" fill="#000"/></g></svg>