<svg width="40" height="30" xmlns="http://www.w3.org/2000/svg"><title>Group</title><g fill="none"><path d="M-11-16h62v62h-62z"/><g fill="#000"><path d="M36.667 0H3.333A3.337 3.337 0 0 0 0 3.333v12a3.337 3.337 0 0 0 3.333 3.334h1.334v2.666h30.666v-2.666h1.334A3.337 3.337 0 0 0 40 15.333v-12A3.337 3.337 0 0 0 36.667 0zM34 20H6v-1.333h28V20zm0-2.667H6v-2.666h28v2.666zm4.667-2a2 2 0 0 1-2 2h-1.334v-4H4.667v4H3.333a2 2 0 0 1-2-2v-4.666h37.334v4.666zm0-6H1.333V8h37.334v1.333zm0-2.666H1.333V3.333a2 2 0 0 1 2-2h33.334a2 2 0 0 1 2 2v3.334z"/><path d="M33.333 4h1.333v1.333h-1.333zM36 4h1.333v1.333H36zM19.333 22.667h1.333V30h-1.333zm-14.281 5.84l-.29.483 1.143.687.29-.484A12.676 12.676 0 0 0 8 22.667l-1.333.009c0 2.054-.559 4.07-1.615 5.831zm28.281-5.831v-.01l-1.333.01c0 2.296.624 4.549 1.805 6.517l.29.484 1.143-.687-.29-.483a11.344 11.344 0 0 1-1.615-5.831z"/></g></g></svg>